<svg xmlns="http://www.w3.org/2000/svg" width="302.212" height="54.97" viewBox="0 0 302.212 54.97">
  <g id="Group_24685" data-name="Group 24685" transform="translate(-0.94 -1.028)">
    <path id="Path_92084" data-name="Path 92084" d="M155.175,16.7h7.039V41h-7.039Zm9.887,6.524h6.093v2.855a6.007,6.007,0,0,1,1.1-1.461,6.218,6.218,0,0,1,1.427-1.046,6.875,6.875,0,0,1,1.694-.614,7.767,7.767,0,0,1,1.826-.216,6.128,6.128,0,0,1,2.623.515,4.765,4.765,0,0,1,1.793,1.428,5.8,5.8,0,0,1,1.046,2.125,10.1,10.1,0,0,1,.332,2.64V41H176.9V30.657a3.411,3.411,0,0,0-.631-2.175,2.464,2.464,0,0,0-2.075-.814,3.482,3.482,0,0,0-1.378.249,2.6,2.6,0,0,0-.946.7,3.008,3.008,0,0,0-.548,1.079,5.131,5.131,0,0,0-.166,1.345V41h-6.093ZM195.685,40.9a11.116,11.116,0,0,1-3.4.515,6.547,6.547,0,0,1-4.665-1.494,6.149,6.149,0,0,1-1.56-4.632V27.37h-2.142V23.22h2.142v-3.7l6.092-2.656V23.22h3.5v4.15h-3.5v7.338A2.011,2.011,0,0,0,192.6,36.1a1.893,1.893,0,0,0,1.444.481,5.055,5.055,0,0,0,.8-.066,4.644,4.644,0,0,0,.847-.249Zm18.885-3.5a6.524,6.524,0,0,1-1.561,1.826,8.436,8.436,0,0,1-2.058,1.245,11.116,11.116,0,0,1-2.324.714,12.981,12.981,0,0,1-6.392-.382,9.079,9.079,0,0,1-3.154-1.826,8.374,8.374,0,0,1-2.059-2.939,10.032,10.032,0,0,1-.747-3.984,9.582,9.582,0,0,1,.73-3.8,8.6,8.6,0,0,1,2.059-2.938,9.147,9.147,0,0,1,3.088-1.893,10.905,10.905,0,0,1,3.9-.681,10.026,10.026,0,0,1,3.7.647,7.718,7.718,0,0,1,2.789,1.843,7.972,7.972,0,0,1,1.777,2.905,11.051,11.051,0,0,1,.614,3.785v1.594h-12.5a4.4,4.4,0,0,0,.382,1.511,3.744,3.744,0,0,0,2.125,1.942,4.682,4.682,0,0,0,1.61.266,6.349,6.349,0,0,0,1.013-.083,5.488,5.488,0,0,0,1.029-.3,5.327,5.327,0,0,0,.947-.531,3.414,3.414,0,0,0,.78-.764Zm-5.545-7.3a3.63,3.63,0,0,0-.764-2.407,2.771,2.771,0,0,0-2.274-.93,3.486,3.486,0,0,0-1.4.266,2.923,2.923,0,0,0-1.029.714,3.532,3.532,0,0,0-.7,1.063,4.853,4.853,0,0,0-.365,1.295Zm7.3-6.873h6.093v3.536a5.871,5.871,0,0,1,2.208-2.889,6.52,6.52,0,0,1,3.536-.88v5.678a18.5,18.5,0,0,0-2.075.116,5.346,5.346,0,0,0-1.843.531,3.319,3.319,0,0,0-1.328,1.179,3.763,3.763,0,0,0-.5,2.075V41h-6.093Zm11.9,0h6.492l3.652,11.455,3.569-11.455h5.811L241.317,41h-6.641Zm20.2-4.831a3.039,3.039,0,0,1,.266-1.278,3.09,3.09,0,0,1,.714-1,3.248,3.248,0,0,1,1.046-.648,3.721,3.721,0,0,1,2.589,0,3.175,3.175,0,0,1,1.079.631,2.977,2.977,0,0,1,.731,1,2.888,2.888,0,0,1,.282,1.278,2.949,2.949,0,0,1-1.029,2.274,3.425,3.425,0,0,1-1.079.647,3.74,3.74,0,0,1-1.279.216,3.873,3.873,0,0,1-1.294-.216,3.411,3.411,0,0,1-1.046-.631,3.09,3.09,0,0,1-.714-1A3.04,3.04,0,0,1,248.415,18.389Zm.3,5h6.093V41h-6.093ZM274.7,37.4a6.524,6.524,0,0,1-1.561,1.826,8.455,8.455,0,0,1-2.058,1.245,11.106,11.106,0,0,1-2.325.714,12.977,12.977,0,0,1-6.391-.382,9.092,9.092,0,0,1-3.155-1.826,8.385,8.385,0,0,1-2.058-2.939,10.032,10.032,0,0,1-.747-3.984,9.582,9.582,0,0,1,.73-3.8,8.6,8.6,0,0,1,2.059-2.938,9.146,9.146,0,0,1,3.088-1.893,10.905,10.905,0,0,1,3.9-.681,10.026,10.026,0,0,1,3.7.647,7.718,7.718,0,0,1,2.789,1.843,7.972,7.972,0,0,1,1.777,2.905,11.051,11.051,0,0,1,.614,3.785v1.594h-12.5a4.4,4.4,0,0,0,.382,1.511,3.744,3.744,0,0,0,2.125,1.942,4.682,4.682,0,0,0,1.61.266,6.349,6.349,0,0,0,1.013-.083,5.488,5.488,0,0,0,1.029-.3,5.284,5.284,0,0,0,.946-.531,3.418,3.418,0,0,0,.781-.764Zm-5.545-7.3a3.63,3.63,0,0,0-.764-2.407,2.771,2.771,0,0,0-2.274-.93,3.486,3.486,0,0,0-1.4.266,2.924,2.924,0,0,0-1.029.714A3.532,3.532,0,0,0,263,28.8a4.891,4.891,0,0,0-.366,1.295Zm5.7-6.873h6.359l2.623,10.642,3.021-10.642h4.9l2.689,10.642,2.922-10.642h5.777L297.475,41h-5.811l-2.689-9.928L286.186,41h-5.91Z" fill="#fff"/>
    <path id="Path_92085" data-name="Path 92085" d="M59.264,44.732a7.5,7.5,0,0,1-2.975-.621l-20.7-9.035a7.154,7.154,0,0,1-3.726-9.5L41.088,5.3a7.425,7.425,0,0,1,9.7-3.65l20.7,9.035a7.154,7.154,0,0,1,3.726,9.5L65.991,40.462A7.38,7.38,0,0,1,59.264,44.732ZM58.009,40.31a3.141,3.141,0,0,0,4.1-1.533L71.334,18.5a3.026,3.026,0,0,0-1.565-4.017L49.057,5.449a3.141,3.141,0,0,0-4.1,1.533L35.732,27.257A3.026,3.026,0,0,0,37.3,31.274Z" fill="#089949"/>
    <path id="Path_92086" data-name="Path 92086" d="M124.193,44.745H101.528a7.285,7.285,0,0,1-7.348-7.2v-22.2a7.286,7.286,0,0,1,7.348-7.2h22.665a7.286,7.286,0,0,1,7.348,7.2v22.2A7.286,7.286,0,0,1,124.193,44.745ZM101.528,12.3a3.083,3.083,0,0,0-3.105,3.041v22.2a3.083,3.083,0,0,0,3.105,3.041h22.665a3.082,3.082,0,0,0,3.1-3.041v-22.2a3.082,3.082,0,0,0-3.1-3.041Z" fill="#f9b21d"/>
    <path id="Path_92087" data-name="Path 92087" d="M39.315,19.413,36.262,26.1c-.039.076-.078.139-.117.2l1.19,7.2a3.048,3.048,0,0,1-2.562,3.485l-22.38,3.548a3.189,3.189,0,0,1-2.316-.532,2.979,2.979,0,0,1-1.242-1.977L5.214,16.106a3.024,3.024,0,0,1,.543-2.268,3.058,3.058,0,0,1,2.018-1.217l22.38-3.548a3.339,3.339,0,0,1,.492-.038,3.1,3.1,0,0,1,3.066,2.56l1.2,7.248,3.157-6.932-.168-.976A7.337,7.337,0,0,0,29.483,4.98L7.1,8.528A7.217,7.217,0,0,0,2.329,11.4a7.033,7.033,0,0,0-1.294,5.36L4.658,38.688a7.119,7.119,0,0,0,2.95,4.689,7.3,7.3,0,0,0,4.282,1.356,7.636,7.636,0,0,0,1.19-.089L35.46,41.1a7.223,7.223,0,0,0,6.08-8.249Z" fill="#e42527"/>
    <path id="Path_92088" data-name="Path 92088" d="M66.158,29.881l3.286-7.21-.931-6.7a2.937,2.937,0,0,1,.608-2.243,3.06,3.06,0,0,1,2.057-1.166L93.635,9.567c.142-.013.285-.025.427-.025a3.166,3.166,0,0,1,1.876.621c.1.076.194.165.285.241a7.441,7.441,0,0,1,3.765-2.078A7.092,7.092,0,0,0,98.5,6.843a7.428,7.428,0,0,0-5.433-1.407L70.582,8.427A7.268,7.268,0,0,0,65.731,11.2a7.057,7.057,0,0,0-1.436,5.322Z" fill="#226db4"/>
    <path id="Path_92089" data-name="Path 92089" d="M104.373,33.593,101.423,12.3a3.063,3.063,0,0,0-2.988,3.029V21.58l1.746,12.571a2.936,2.936,0,0,1-.608,2.243,3.06,3.06,0,0,1-2.057,1.166L75.058,40.55a3.09,3.09,0,0,1-2.29-.6,2.972,2.972,0,0,1-1.19-2.015l-1.035-7.464-3.286,7.21.116.811a7.061,7.061,0,0,0,2.833,4.752,7.387,7.387,0,0,0,4.437,1.47,8.992,8.992,0,0,0,1.009-.063l22.432-2.965a7.27,7.27,0,0,0,4.852-2.775A7.061,7.061,0,0,0,104.373,33.593Z" fill="#226db4"/>
    <path id="Path_92090" data-name="Path 92090" d="M41.008,55.275l3.208-4.638H41.577a.257.257,0,0,1-.259-.253v-.621a.257.257,0,0,1,.259-.253h4.334a.257.257,0,0,1,.259.253V50a.251.251,0,0,1-.039.139l-3.144,4.638h2.82a.257.257,0,0,1,.259.253v.621a.257.257,0,0,1-.259.253h-4.58a.257.257,0,0,1-.259-.253v-.228A.194.194,0,0,1,41.008,55.275Z" fill="#fff"/>
    <path id="Path_92091" data-name="Path 92091" d="M54.515,52.665A3.21,3.21,0,0,1,57.878,49.4a3.163,3.163,0,0,1,3.363,3.282A3.2,3.2,0,0,1,57.852,56,3.155,3.155,0,0,1,54.515,52.665Zm5.188.025c0-1.153-.569-2.142-1.85-2.142s-1.785,1.026-1.785,2.192a1.9,1.9,0,0,0,1.85,2.116C59.2,54.844,59.7,53.767,59.7,52.69Z" fill="#fff"/>
    <path id="Path_92092" data-name="Path 92092" d="M70.438,49.5H71.4a.257.257,0,0,1,.259.253v2.357h2.717V49.75a.257.257,0,0,1,.259-.253h.957a.257.257,0,0,1,.259.253v5.893a.257.257,0,0,1-.259.253h-.944a.257.257,0,0,1-.259-.253V53.26H71.667v2.382a.257.257,0,0,1-.259.253h-.957a.257.257,0,0,1-.259-.253V49.75A.238.238,0,0,1,70.438,49.5Z" fill="#fff"/>
    <path id="Path_92093" data-name="Path 92093" d="M84.787,52.665A3.21,3.21,0,0,1,88.151,49.4a3.163,3.163,0,0,1,3.364,3.282A3.2,3.2,0,0,1,88.125,56,3.155,3.155,0,0,1,84.787,52.665Zm5.175.025c0-1.153-.569-2.142-1.85-2.142s-1.785,1.026-1.785,2.192a1.9,1.9,0,0,0,1.85,2.116C89.457,54.844,89.962,53.767,89.962,52.69Z" fill="#fff"/>
  </g>
</svg>
